<svg width="120" height="44" viewBox="0 0 120 44" fill="none" xmlns="http://www.w3.org/2000/svg">
<path fill-rule="evenodd" clip-rule="evenodd" d="M11.8077 0.852608C15.1247 0.284203 18.4418 0 21.7589 0C25.076 0 28.393 0.284203 31.7101 0.852608V0.852608C37.3245 1.81468 41.723 6.26185 42.6745 11.9385C43.2367 15.2923 43.5178 18.6462 43.5178 22C43.5178 25.3538 43.2367 28.7077 42.6745 32.0615V32.0615C41.723 37.7381 37.3245 42.1853 31.7101 43.1474C28.393 43.7158 25.076 44 21.7589 44C18.4418 44 15.1247 43.7158 11.8077 43.1474V43.1474C6.19322 42.1853 1.79479 37.7381 0.843264 32.0615C0.281088 28.7077 0 25.3538 0 22C0 18.6462 0.281088 15.2923 0.843264 11.9385H0.843263C1.79479 6.26185 6.19322 1.81468 11.8077 0.852608Z" fill="#00CA86"/>
<path d="M19.2439 20.1696H23.583C24.3471 20.1696 24.9747 19.9899 25.466 19.6304C25.9572 19.2709 26.2028 18.6868 26.2028 17.8779C26.2028 17.4286 26.1209 17.0601 25.9572 16.7725C25.7934 16.485 25.5751 16.2603 25.3022 16.0985C25.0293 15.9368 24.7155 15.8244 24.3607 15.7615C24.006 15.6986 23.6376 15.6671 23.2555 15.6671H19.2439V20.1696ZM14.9595 12.3779H24.1288C25.0566 12.3779 25.9026 12.4588 26.6667 12.6206C27.4308 12.7823 28.0858 13.0475 28.6315 13.4159C29.1773 13.7844 29.6003 14.2742 29.9005 14.8853C30.2007 15.4964 30.3508 16.2513 30.3508 17.15C30.3508 18.1206 30.1279 18.9294 29.6822 19.5765C29.2365 20.2235 28.577 20.7537 27.7037 21.1671C28.9044 21.5087 29.8005 22.1063 30.3917 22.96C30.983 23.8138 31.2786 24.8428 31.2786 26.047C31.2786 27.0176 31.0876 27.8579 30.7056 28.5679C30.3235 29.2779 29.8096 29.8575 29.1637 30.3069C28.5178 30.7562 27.781 31.0887 26.9532 31.3044C26.1255 31.5201 25.2749 31.6279 24.4017 31.6279H14.9595V12.3779ZM19.2439 28.3387H23.8286C24.247 28.3387 24.6473 28.2983 25.0293 28.2174C25.4114 28.1365 25.7479 28.0017 26.039 27.813C26.3301 27.6243 26.5621 27.3681 26.7349 27.0446C26.9078 26.7211 26.9942 26.3077 26.9942 25.8044C26.9942 24.8158 26.7122 24.1104 26.1482 23.688C25.5842 23.2656 24.8383 23.0544 23.9105 23.0544H19.2439V28.3387Z" fill="white"/>
<path d="M19.2439 20.1696H23.583C24.3471 20.1696 24.9747 19.9899 25.466 19.6304C25.9572 19.2709 26.2028 18.6868 26.2028 17.8779C26.2028 17.4286 26.1209 17.0601 25.9572 16.7725C25.7934 16.485 25.5751 16.2603 25.3022 16.0985C25.0293 15.9368 24.7155 15.8244 24.3607 15.7615C24.006 15.6986 23.6376 15.6671 23.2555 15.6671H19.2439V20.1696ZM14.9595 12.3779H24.1288C25.0566 12.3779 25.9026 12.4588 26.6667 12.6206C27.4308 12.7823 28.0858 13.0475 28.6315 13.4159C29.1773 13.7844 29.6003 14.2742 29.9005 14.8853C30.2007 15.4964 30.3508 16.2513 30.3508 17.15C30.3508 18.1206 30.1279 18.9294 29.6822 19.5765C29.2365 20.2235 28.577 20.7537 27.7037 21.1671C28.9044 21.5087 29.8005 22.1063 30.3917 22.96C30.983 23.8138 31.2786 24.8428 31.2786 26.047C31.2786 27.0176 31.0876 27.8579 30.7056 28.5679C30.3235 29.2779 29.8096 29.8575 29.1637 30.3069C28.5178 30.7562 27.781 31.0887 26.9532 31.3044C26.1255 31.5201 25.2749 31.6279 24.4017 31.6279H14.9595V12.3779ZM19.2439 28.3387H23.8286C24.247 28.3387 24.6473 28.2983 25.0293 28.2174C25.4114 28.1365 25.7479 28.0017 26.039 27.813C26.3301 27.6243 26.5621 27.3681 26.7349 27.0446C26.9078 26.7211 26.9942 26.3077 26.9942 25.8044C26.9942 24.8158 26.7122 24.1104 26.1482 23.688C25.5842 23.2656 24.8383 23.0544 23.9105 23.0544H19.2439V28.3387Z" fill="white"/>
<path fill-rule="evenodd" clip-rule="evenodd" d="M66.2094 26.6562C66.2094 27.451 66.0487 28.1421 65.7273 28.7295C65.4058 29.317 64.966 29.8051 64.4077 30.1938C63.8495 30.5826 63.1982 30.8763 62.4538 31.075C61.7095 31.2737 60.9228 31.373 60.0939 31.373H51.314V12.9724H61.3373C61.9632 12.9724 62.5299 13.1106 63.0375 13.387C63.545 13.6635 63.9764 14.022 64.3316 14.4626C64.6869 14.9031 64.9618 15.4042 65.1563 15.9657C65.3509 16.5272 65.4481 17.1017 65.4481 17.6892C65.4481 18.5703 65.2324 19.3996 64.8011 20.1771C64.3697 20.9546 63.7226 21.5421 62.8598 21.9394C63.8918 22.2504 64.708 22.8033 65.3086 23.5981C65.9091 24.3929 66.2094 25.4122 66.2094 26.6562ZM61.9717 25.801C61.9717 25.2308 61.811 24.7471 61.4896 24.3497C61.1681 23.9523 60.7621 23.7536 60.2715 23.7536H55.4755V27.7706H60.0939C60.6352 27.7706 61.0835 27.5892 61.4388 27.2264C61.7941 26.8636 61.9717 26.3884 61.9717 25.801ZM55.4755 16.6007V20.4104H59.561C60.0178 20.4104 60.4238 20.2549 60.779 19.9439C61.1343 19.6329 61.3119 19.1491 61.3119 18.4926C61.3119 17.8878 61.1554 17.4214 60.8425 17.0931C60.5295 16.7648 60.1531 16.6007 59.7133 16.6007H55.4755ZM68.2902 12.8691H72.3503V26.5267C72.3503 27.5633 72.7817 28.0816 73.6444 28.0816C73.8474 28.0816 74.0716 28.0514 74.3169 27.9909C74.5622 27.9305 74.7863 27.8397 74.9893 27.7188L75.5222 30.8288C75.0147 31.0707 74.4311 31.2607 73.7713 31.3989C73.1115 31.5372 72.4941 31.6063 71.9189 31.6063C70.7516 31.6063 69.855 31.2953 69.2291 30.6733C68.6032 30.0513 68.2902 29.1529 68.2902 27.978V12.8691ZM76.4598 33.4204C76.7981 33.5414 77.1153 33.6277 77.4113 33.6796C77.7074 33.7314 77.9738 33.7573 78.2107 33.7573C78.7013 33.7573 79.0819 33.5846 79.3526 33.239C79.6232 32.8934 79.8685 32.2715 80.0885 31.373L75.0133 17.7669H79.2003L82.2961 27.8225L84.9606 17.7669H88.7669L83.6918 33.5759C83.3365 34.699 82.7021 35.6103 81.7886 36.3101C80.8751 37.0098 79.7924 37.3597 78.5405 37.3597C78.2022 37.3597 77.8596 37.3295 77.5128 37.269C77.166 37.2085 76.815 37.1092 76.4598 36.971V33.4204ZM103.206 31.373H99.1455V23.7277C99.1455 22.8292 98.9805 22.177 98.6507 21.771C98.3208 21.365 97.8852 21.162 97.3438 21.162C97.0562 21.162 96.7686 21.2224 96.481 21.3434C96.1935 21.4643 95.9143 21.6328 95.6437 21.8487C95.373 22.0647 95.1319 22.3196 94.9205 22.6133C94.709 22.907 94.5441 23.2266 94.4256 23.5722V31.373H90.3655V17.7669H94.0196V20.0476C94.5102 19.2355 95.2038 18.6092 96.1004 18.1686C96.997 17.728 98.029 17.5077 99.1962 17.5077C100.059 17.5077 100.753 17.6676 101.277 17.9872C101.801 18.3068 102.207 18.7215 102.495 19.2312C102.783 19.7409 102.973 20.2981 103.066 20.9028C103.159 21.5075 103.206 22.0949 103.206 22.6651V31.373ZM114.853 31.373L111.376 25.9047L109.955 27.4078V31.373H105.895V12.8691H109.955V23.4167L114.447 17.7669H118.761L113.965 23.624L119.167 31.373H114.853Z" fill="#00CA86"/>
</svg>
